# This file uses centimeters as units for non-parametric coordinates.

mtllib ArrowSign.mtl
g default
v 5.956563 1.103199 23.886070
v 6.226127 1.103199 23.946551
v 7.166173 3.103199 19.034591
v 7.408746 3.103199 19.095074
v 7.166173 1.103199 19.034591
v 7.427309 1.103199 19.095073
v 6.324219 3.103199 22.694665
v 6.918206 3.103199 20.312316
v 7.160778 3.103199 20.372797
v 6.566793 3.103199 22.755138
v 7.160778 1.103199 20.372797
v 6.566793 1.103199 22.755138
v 6.918206 1.103199 20.312316
v 6.324219 1.103199 22.694665
v 5.956563 1.320717 23.886072
v 6.199137 1.320717 23.946552
v 6.566793 1.320717 22.755138
v 7.160778 1.320717 20.372797
v 7.408746 1.320717 19.095074
v 7.166173 1.320717 19.034591
v 6.918206 1.320717 20.312316
v 6.324219 1.320717 22.694665
v 6.013436 1.251131 23.900252
v 6.381092 1.103199 22.708843
v 6.975078 1.103199 20.326495
v 7.223045 1.226457 19.048773
v 7.223045 1.320717 19.048773
v 7.223045 3.103199 19.048773
v 6.975078 3.103199 20.326495
v 6.381092 3.103199 22.708843
v 6.013436 1.320717 23.900252
v 7.134287 3.103199 20.366193
v 7.382255 3.103199 19.088471
v 7.382255 1.320717 19.088471
v 7.386439 1.274715 19.088468
v 7.134287 1.103199 20.366193
v 6.540304 1.103199 22.748535
v 6.172646 1.263502 23.939949
v 6.172646 1.320717 23.939949
v 6.540304 3.103199 22.748535
v 6.097359 1.290071 23.921174
v 6.465018 1.103199 22.729764
v 7.059001 1.103199 20.347422
v 7.306968 1.289184 19.069696
v 7.306968 1.320717 19.069696
v 7.306968 3.103199 19.069696
v 7.059001 3.103199 20.347422
v 6.465016 3.103199 22.729764
v 6.097360 1.320717 23.921177
v 5.956563 2.480779 23.886070
v 6.140373 3.103199 23.290425
v 6.197245 3.103199 23.304609
v 6.013436 2.480779 23.900252
v 6.281029 3.103199 23.325984
v 6.097359 2.480310 23.921174
v 6.199137 2.480779 23.946552
v 6.382945 3.103199 23.350905
v 6.172646 2.480779 23.939949
v 6.356456 3.103199 23.344301
vt 0.498704 0.412154
vt 0.420219 0.643280
vt 0.383316 0.630008
vt 0.194985 0.415401
vt 0.445849 0.631155
vt 0.497667 0.600551
vt 0.814934 0.586402
vt 0.621767 0.417570
vt 0.329083 0.626403
vt 0.238721 0.574184
vt 0.448766 0.636148
vt 0.419661 0.638061
vt 0.376885 0.648522
vt 0.333221 0.616883
vt 0.820535 0.424474
vt 0.926203 0.428059
vt 0.920331 0.590042
vt 0.088476 0.416611
vt 0.196868 0.579038
vt 0.090396 0.580252
vt 0.521476 0.413883
vt 0.234327 0.583845
vt 0.184869 0.565101
vt 0.193860 0.545680
vt 0.395893 0.413184
vt 0.499906 0.430676
vt 0.520210 0.431595
vt 0.621149 0.435179
vt 0.819926 0.442083
vt 0.382115 0.641672
vt 0.925302 0.445720
vt 0.088688 0.434413
vt 0.382913 0.636500
vt 0.195193 0.433202
vt 0.507292 0.424778
vt 0.190170 0.551372
vt 0.237632 0.576418
vt 0.332265 0.619113
vt 0.381901 0.634948
vt 0.382698 0.637605
vt 0.419790 0.639258
vt 0.446529 0.632301
vt 0.448445 0.635590
vt 0.420157 0.642695
vt 0.382142 0.641102
vt 0.380002 0.642103
vt 0.329567 0.625374
vt 0.234769 0.582775
vt 0.517804 0.427036
vt 0.186991 0.558203
vt 0.511754 0.429190
vt 0.188287 0.554953
vt 0.236120 0.579767
vt 0.330841 0.622409
vt 0.381033 0.638988
vt 0.382331 0.639403
vt 0.419982 0.641054
vt 0.447536 0.634021
vt 0.397767 0.576803
vt 0.396188 0.431025
vt 0.448741 0.576212
vt 0.616140 0.579509
vt 0.565664 0.577763
vt 0.499139 0.524743
vt 0.509552 0.578854
vt 0.509437 0.525061
vt 0.518000 0.431526
vt 0.495738 0.598509
vt 0.508215 0.578459
vt 0.497564 0.576218
vt 0.500332 0.576635
vt 0.493112 0.595901
vt 0.504819 0.430908
vt 0.514984 0.525461
vt 0.516946 0.525622
vt 0.497165 0.600006
vt 0.494162 0.596925
vt 0.504462 0.577459
vt 0.503288 0.524828
vt 0.511755 0.431303
vn 0.241881 0.000131 -0.970306
vn 0.241933 0.000000 -0.970293
vn 0.241939 0.000000 -0.970291
vn 0.241887 0.000581 -0.970304
vn -0.965938 -0.000000 -0.258775
vn -0.974547 0.000000 -0.224182
vn -0.974547 0.000000 -0.224182
vn -0.965906 -0.000000 -0.258894
vn 0.000000 1.000000 0.000000
vn 0.000000 1.000000 0.000000
vn 0.000000 1.000000 0.000000
vn 0.000000 1.000000 0.000000
vn 0.974547 0.000000 0.224183
vn 0.965938 0.000000 0.258775
vn 0.966005 0.002231 0.258513
vn 0.974487 0.001579 0.224438
vn -0.279292 -0.955284 -0.097101
vn -0.280591 -0.958852 -0.043253
vn -0.001209 -0.998864 0.047642
vn 0.057726 -0.997747 -0.034173
vn 0.000000 1.000000 0.000000
vn 0.000000 1.000000 0.000000
vn 0.171553 -0.980658 -0.094232
vn -0.570180 -0.794088 -0.210524
vn 0.981527 0.004597 0.191268
vn 0.981684 0.000000 0.190516
vn -0.981684 0.000000 -0.190515
vn -0.981684 0.000000 -0.190515
vn 0.955867 0.006851 0.293719
vn 0.955538 0.000000 0.294868
vn 0.955538 0.000000 0.294868
vn 0.008403 -0.989544 0.143986
vn -0.581949 -0.809715 -0.075480
vn -0.955537 -0.000000 -0.294870
vn -0.955537 -0.000000 -0.294870
vn -0.955537 -0.000000 -0.294870
vn -0.241933 0.000000 0.970293
vn -0.241930 -0.000020 0.970294
vn -0.211553 -0.014849 0.977254
vn -0.240529 -0.000688 0.970642
vn 0.956855 0.059363 0.284436
vn 0.966368 0.019987 0.256385
vn 0.973902 0.014507 0.226504
vn 0.979472 0.041793 0.197202
vn 0.240355 0.003969 -0.970677
vn 0.241854 0.018802 -0.970131
vn -0.981684 0.000000 -0.190515
vn -0.974547 0.000000 -0.224182
vn -0.965651 0.000000 -0.259842
vn -0.955538 0.000000 -0.294870
vn 0.376399 -0.916460 0.135736
vn 0.189639 -0.977258 0.094893
vn 0.484939 -0.840394 0.242019
vn 0.738750 -0.619094 0.266406
vn 0.217538 -0.975993 0.010743
vn 0.346213 -0.936757 0.051211
vn 0.718432 -0.687431 0.106269
vn 0.541264 -0.840408 0.027332
vn 0.241953 0.000000 -0.970288
vn 0.241923 0.000000 -0.970296
vn 0.241944 0.000000 -0.970290
vn 0.241954 0.000000 -0.970288
vn 0.241953 0.000000 -0.970288
vn 0.241922 0.000000 -0.970296
vn 0.000000 1.000000 0.000000
vn 0.000000 1.000000 0.000000
vn 0.000000 1.000000 0.000000
vn 0.000000 1.000000 0.000000
vn 0.000000 1.000000 0.000000
vn 0.000000 1.000000 0.000000
vn -0.241936 -0.000007 0.970292
vn -0.241931 -0.000009 0.970294
vn -0.241922 -0.000000 0.970296
vn -0.241939 -0.000000 0.970292
vn 0.000000 1.000000 0.000000
vn 0.000000 1.000000 0.000000
vn 0.241855 0.000000 -0.970312
vn 0.241992 0.001509 -0.970277
vn 0.243714 0.021051 -0.969619
vn -0.904747 -0.371393 -0.208565
vn -0.684114 -0.712121 -0.157704
vn -0.621147 -0.766578 -0.162895
vn -0.863976 -0.449677 -0.226576
vn -0.201362 -0.019787 0.979317
vn -0.236503 -0.002627 0.971627
vn 0.000000 1.000000 0.000000
vn -0.171094 0.707106 0.686096
vn -0.171094 0.707106 0.686096
vn -0.171116 0.706949 0.686252
vn -0.171117 0.706943 0.686258
vn -0.171127 0.706838 0.686364
vn -0.171127 0.706838 0.686364
vn -0.171102 0.706906 0.686300
vn -0.171100 0.706912 0.686295
vn -0.171040 0.707107 0.686108
vn -0.171040 0.707107 0.686108
vn -0.241933 0.000001 0.970293
vn -0.241930 0.000001 0.970294
vn 0.000000 1.000000 0.000000
vn 0.000000 1.000000 0.000000
vn 0.000000 1.000000 0.000000
vn 0.000000 1.000000 0.000000
vn -0.241922 0.000001 0.970296
vn -0.241939 0.000001 0.970291
vn -0.241849 0.000000 0.970314
vn 0.000000 1.000000 0.000000
s 1
g pCube5
usemtl initialShadingGroup
f 45/56/1 46/57/2 33/44/3 34/45/4
s 2
f 7/59/5 8/19/6 21/34/7 22/60/8
s 3
f 47/58/9 48/68/10 40/76/11 32/43/12
s 4
f 9/7/13 10/62/14 17/28/15 18/29/16
s 5
f 36/47/17 37/48/18 42/53/19 43/54/20
s 3
f 46/57/21 47/58/9 32/43/12 33/44/22
s 5
f 43/54/20 44/55/23 35/46/24 36/47/17
s 4
f 9/7/13 18/29/16 19/31/25 4/17/26
s 2
f 20/32/27 21/34/7 8/19/6 3/20/28
s 4
f 16/27/29 17/28/15 10/62/14 57/63/30 56/75/31
s 5
f 41/52/32 42/53/19 37/48/18 38/50/33
s 2
f 7/59/5 22/60/8 15/26/34 50/64/35 51/61/36
s 6
f 49/80/37 41/51/38 38/49/39 39/67/40
s 4
f 2/21/41 12/8/42 17/28/15 16/27/29
f 18/29/16 17/28/15 12/8/42 11/15/43
f 19/31/25 18/29/16 11/15/43 6/16/44
s 1
f 44/55/45 45/56/1 34/45/4 35/46/46
s 2
f 5/18/47 13/4/48 21/34/7 20/32/27
f 22/60/8 21/34/7 13/4/48 14/25/49
f 15/26/34 22/60/8 14/25/49 1/1/50
s 5
f 14/10/51 24/37/52 23/36/53 1/24/54
f 25/38/55 24/37/52 14/10/51 13/14/56
f 5/3/57 26/39/58 25/38/55 13/14/56
s 1
f 20/33/59 27/40/60 26/39/61 5/3/62
f 3/12/63 28/41/64 27/40/60 20/33/59
s 3
f 8/5/65 29/42/66 28/41/67 3/12/68
f 8/5/65 7/72/69 30/77/70 29/42/66
s 6
f 1/1/71 23/35/72 31/73/73 15/26/74
s 3
f 33/44/22 32/43/12 9/11/75 4/2/76
s 1
f 34/45/4 33/44/3 4/2/77 19/30/78
f 35/46/46 34/45/4 19/30/78 6/13/79
s 5
f 36/47/17 35/46/24 6/13/80 11/9/81
f 11/9/81 12/22/82 37/48/18 36/47/17
f 38/50/33 37/48/18 12/22/82 2/23/83
s 6
f 39/67/40 38/49/39 2/21/84 16/27/85
s 3
f 32/43/12 40/76/11 10/6/86 9/11/75
s 5
f 23/36/53 24/37/52 42/53/19 41/52/32
f 43/54/20 42/53/19 24/37/52 25/38/55
f 25/38/55 26/39/58 44/55/23 43/54/20
s 1
f 26/39/61 27/40/60 45/56/1 44/55/45
f 27/40/60 28/41/64 46/57/2 45/56/1
s 3
f 28/41/67 29/42/66 47/58/9 46/57/21
f 29/42/66 30/77/70 48/68/10 47/58/9
s 6
f 31/73/73 23/35/72 41/51/38 49/80/37
s 10
f 51/70/87 50/64/88 53/79/89 52/71/90
f 52/71/90 53/79/89 55/66/91 54/78/92
f 54/78/92 55/66/91 58/74/93 59/69/94
f 56/75/95 57/65/96 59/69/94 58/74/93
s 6
f 55/66/97 49/80/37 39/67/40 58/74/98
s 3
f 48/68/10 54/78/99 59/69/100 40/76/11
f 51/70/101 52/71/102 30/77/70 7/72/69
s 6
f 15/26/74 31/73/73 53/79/103 50/64/104
f 58/74/98 39/67/40 16/27/85 56/75/105
s 3
f 40/76/11 59/69/100 57/65/106 10/6/86
f 30/77/70 52/71/102 54/78/99 48/68/10
s 6
f 53/79/103 31/73/73 49/80/37 55/66/97
