# This file uses centimeters as units for non-parametric coordinates.

mtllib PowerUpEmmissive.mtl
g default
v 1.129619 2.721541 2.174646
v 1.129619 2.721541 -2.240148
v 0.957444 2.721541 -2.240148
v 0.957444 2.721541 2.174646
v 1.129619 0.575654 2.174646
v 1.129619 0.575654 -2.240148
v 0.957444 0.575654 -2.240148
v 0.957444 0.575654 2.174646
v 0.785269 2.721541 2.174646
v 0.785269 2.721541 -2.240148
v 0.613094 2.721541 -2.240148
v 0.613094 2.721541 2.174646
v 0.785269 0.576781 2.174646
v 0.785269 0.576781 -2.240148
v 0.613094 0.576781 -2.240148
v 0.613094 0.576781 2.174646
v 0.440919 2.721541 2.174646
v 0.440919 2.721541 -2.240148
v 0.268743 2.721541 -2.240148
v 0.268743 2.721541 2.174646
v 0.440919 0.589742 2.174646
v 0.440919 0.589742 -2.240148
v 0.268743 0.589742 -2.240148
v 0.268743 0.589742 2.174646
v 0.096568 2.721541 2.174646
v 0.096568 2.721541 -2.240148
v -0.075607 2.721541 -2.240148
v -0.075607 2.721541 2.174646
v 0.096568 0.599055 2.174646
v 0.096568 0.599055 -2.240148
v -0.075607 0.599055 -2.240148
v -0.075607 0.599055 2.174646
v -0.247782 2.721541 2.174646
v -0.247782 2.721541 -2.240148
v -0.419957 2.721541 -2.240148
v -0.419957 2.721541 2.174646
v -0.247782 0.596458 2.174646
v -0.247782 0.596458 -2.240148
v -0.419957 0.596458 -2.240148
v -0.419957 0.596458 2.174646
v -0.936483 2.721541 2.174646
v -0.936483 2.721541 -2.240148
v -1.108658 2.721541 -2.240148
v -1.108658 2.721541 2.174646
v -0.936483 0.610980 2.174646
v -0.936483 0.610980 -2.240148
v -1.108658 0.610980 -2.240148
v -1.108658 0.610980 2.174646
v -0.592132 2.721541 2.174646
v -0.592132 2.721541 -2.240148
v -0.764307 2.721541 -2.240148
v -0.764307 2.721541 2.174646
v -0.592132 0.589610 2.174646
v -0.592132 0.589610 -2.240148
v -0.764307 0.589610 -2.240148
v -0.764307 0.589610 2.174646
v -1.277696 2.721541 2.054197
v -1.268013 2.721541 -2.176988
v -1.427764 2.721541 -2.096718
v -1.412699 2.721541 1.920625
v -1.277696 0.608824 2.054198
v -1.268013 0.608824 -2.176988
v -1.427764 0.608824 -2.096718
v -1.412699 0.608824 1.920626
v -1.682705 2.721541 1.653482
v -1.747267 2.721541 -1.936177
v -1.547702 2.721541 1.787053
v -1.587516 2.721541 -2.016447
v -1.682705 0.600826 1.653482
v -1.547702 0.600826 1.787053
v -1.587516 0.600826 -2.016447
v -1.747267 0.600826 -1.936177
v 1.804554 2.721541 -1.920311
v 1.800751 2.721541 1.808355
v 1.598065 2.721541 -2.021009
v 1.590852 2.721541 1.900552
v 1.804554 0.599864 -1.920311
v 1.598065 0.599864 -2.021009
v 1.590852 0.599864 1.900552
v 1.800751 0.599864 1.808355
v 1.991123 2.721541 1.711069
v 1.969575 2.721541 -1.760766
v 2.188145 2.721541 1.610734
v 2.166597 2.721541 -1.659102
v 1.991123 0.593795 1.711069
v 2.188145 0.593795 1.610735
v 2.166597 0.593795 -1.659102
v 1.969575 0.593795 -1.760766
v 1.435275 2.721541 1.992749
v 1.445898 2.721541 -2.121706
v 1.293731 2.721541 -2.222404
v 1.279699 2.721541 2.084946
v 1.435275 0.573212 1.992749
v 1.445898 0.573212 -2.121706
v 1.293731 0.573212 -2.222404
v 1.279699 0.573212 2.084946
vt 0.679091 0.158195
vt 0.679091 0.855019
vt 0.646711 0.855019
vt 0.646711 0.158195
vt 0.679091 0.158195
vt 0.679091 0.855019
vt 0.646711 0.855019
vt 0.646711 0.158195
vt 0.614332 0.158195
vt 0.614332 0.855019
vt 0.581952 0.855019
vt 0.581952 0.158195
vt 0.614332 0.158195
vt 0.614332 0.855019
vt 0.581952 0.855019
vt 0.581952 0.158195
vt 0.549573 0.158195
vt 0.549573 0.855019
vt 0.517193 0.855019
vt 0.517193 0.158195
vt 0.549573 0.158195
vt 0.549573 0.855019
vt 0.517193 0.855019
vt 0.517193 0.158195
vt 0.484814 0.158195
vt 0.484814 0.855019
vt 0.452434 0.855019
vt 0.452434 0.158195
vt 0.484814 0.158195
vt 0.484814 0.855019
vt 0.452434 0.855019
vt 0.452434 0.158195
vt 0.420055 0.158195
vt 0.420055 0.855019
vt 0.387675 0.855019
vt 0.387675 0.158195
vt 0.420055 0.158195
vt 0.420055 0.855019
vt 0.387675 0.855019
vt 0.387675 0.158195
vt 0.290537 0.158195
vt 0.290537 0.855019
vt 0.258157 0.855019
vt 0.258157 0.158195
vt 0.290537 0.158195
vt 0.290537 0.855019
vt 0.258157 0.855019
vt 0.258157 0.158195
vt 0.355296 0.158195
vt 0.355296 0.855019
vt 0.322916 0.855019
vt 0.322916 0.158195
vt 0.355296 0.158195
vt 0.355296 0.855019
vt 0.322916 0.855019
vt 0.322916 0.158195
vt 0.226367 0.177206
vt 0.228188 0.845050
vt 0.198145 0.832380
vt 0.200978 0.198289
vt 0.226367 0.177206
vt 0.228188 0.845050
vt 0.198145 0.832380
vt 0.200978 0.198289
vt 0.138050 0.807040
vt 0.150190 0.240455
vt 0.175590 0.219372
vt 0.168102 0.819710
vt 0.138050 0.807040
vt 0.150190 0.240455
vt 0.175590 0.219372
vt 0.168102 0.819710
vt 0.805305 0.216010
vt 0.806020 0.804536
vt 0.767187 0.820430
vt 0.765831 0.201457
vt 0.805305 0.216010
vt 0.806020 0.804536
vt 0.767187 0.820430
vt 0.765831 0.201457
vt 0.837054 0.779354
vt 0.841106 0.231365
vt 0.878159 0.247202
vt 0.874106 0.763308
vt 0.837054 0.779354
vt 0.841106 0.231365
vt 0.878159 0.247202
vt 0.874106 0.763308
vt 0.736573 0.186905
vt 0.738571 0.836324
vt 0.709954 0.852218
vt 0.707315 0.172353
vt 0.736573 0.186905
vt 0.738571 0.836324
vt 0.709954 0.852218
vt 0.707315 0.172353
vn 0.000000 1.000000 0.000000
vn 0.000000 1.000000 0.000000
vn 0.000000 1.000000 0.000000
vn 0.000000 1.000000 0.000000
vn 1.000000 0.000000 0.000000
vn 1.000000 0.000000 0.000000
vn 1.000000 0.000000 0.000000
vn 1.000000 0.000000 0.000000
vn 0.000000 0.000000 -1.000000
vn 0.000000 0.000000 -1.000000
vn 0.000000 0.000000 -1.000000
vn 0.000000 0.000000 -1.000000
vn -1.000000 0.000000 0.000000
vn -1.000000 0.000000 0.000000
vn -1.000000 0.000000 0.000000
vn -1.000000 0.000000 0.000000
vn 0.000000 0.000000 1.000000
vn 0.000000 0.000000 1.000000
vn 0.000000 0.000000 1.000000
vn 0.000000 0.000000 1.000000
vn 0.000000 1.000000 0.000000
vn 0.000000 1.000000 0.000000
vn 0.000000 1.000000 0.000000
vn 0.000000 1.000000 0.000000
vn 1.000000 0.000000 0.000000
vn 1.000000 0.000000 0.000000
vn 1.000000 0.000000 0.000000
vn 1.000000 0.000000 0.000000
vn 0.000000 0.000000 -1.000000
vn 0.000000 0.000000 -1.000000
vn 0.000000 0.000000 -1.000000
vn 0.000000 0.000000 -1.000000
vn -1.000000 0.000000 0.000000
vn -1.000000 0.000000 0.000000
vn -1.000000 0.000000 0.000000
vn -1.000000 0.000000 0.000000
vn 0.000000 0.000000 1.000000
vn 0.000000 0.000000 1.000000
vn 0.000000 0.000000 1.000000
vn 0.000000 0.000000 1.000000
vn 0.000000 1.000000 0.000000
vn 0.000000 1.000000 0.000000
vn 0.000000 1.000000 0.000000
vn 0.000000 1.000000 0.000000
vn 1.000000 0.000000 0.000000
vn 1.000000 0.000000 0.000000
vn 1.000000 0.000000 0.000000
vn 1.000000 0.000000 0.000000
vn 0.000000 0.000000 -1.000000
vn 0.000000 0.000000 -1.000000
vn 0.000000 0.000000 -1.000000
vn 0.000000 0.000000 -1.000000
vn -1.000000 0.000000 0.000000
vn -1.000000 0.000000 0.000000
vn -1.000000 0.000000 0.000000
vn -1.000000 0.000000 0.000000
vn 0.000000 0.000000 1.000000
vn 0.000000 0.000000 1.000000
vn 0.000000 0.000000 1.000000
vn 0.000000 0.000000 1.000000
vn 0.000000 1.000000 0.000000
vn 0.000000 1.000000 0.000000
vn 0.000000 1.000000 0.000000
vn 0.000000 1.000000 0.000000
vn 1.000000 0.000000 0.000000
vn 1.000000 0.000000 0.000000
vn 1.000000 0.000000 0.000000
vn 1.000000 0.000000 0.000000
vn 0.000000 0.000000 -1.000000
vn 0.000000 0.000000 -1.000000
vn 0.000000 0.000000 -1.000000
vn 0.000000 0.000000 -1.000000
vn -1.000000 0.000000 0.000000
vn -1.000000 0.000000 0.000000
vn -1.000000 0.000000 0.000000
vn -1.000000 0.000000 0.000000
vn 0.000000 0.000000 1.000000
vn 0.000000 0.000000 1.000000
vn 0.000000 0.000000 1.000000
vn 0.000000 0.000000 1.000000
vn 0.000000 1.000000 0.000000
vn 0.000000 1.000000 0.000000
vn 0.000000 1.000000 0.000000
vn 0.000000 1.000000 0.000000
vn 1.000000 0.000000 0.000000
vn 1.000000 0.000000 0.000000
vn 1.000000 0.000000 0.000000
vn 1.000000 0.000000 0.000000
vn 0.000000 0.000000 -1.000000
vn 0.000000 0.000000 -1.000000
vn 0.000000 0.000000 -1.000000
vn 0.000000 0.000000 -1.000000
vn -1.000000 0.000000 0.000000
vn -1.000000 0.000000 0.000000
vn -1.000000 0.000000 0.000000
vn -1.000000 0.000000 0.000000
vn 0.000000 0.000000 1.000000
vn 0.000000 0.000000 1.000000
vn 0.000000 0.000000 1.000000
vn 0.000000 0.000000 1.000000
vn 0.000000 1.000000 0.000000
vn 0.000000 1.000000 0.000000
vn 0.000000 1.000000 0.000000
vn 0.000000 1.000000 0.000000
vn 1.000000 0.000000 0.000000
vn 1.000000 0.000000 0.000000
vn 1.000000 0.000000 0.000000
vn 1.000000 0.000000 0.000000
vn 0.000000 0.000000 -1.000000
vn 0.000000 0.000000 -1.000000
vn 0.000000 0.000000 -1.000000
vn 0.000000 0.000000 -1.000000
vn -1.000000 0.000000 0.000000
vn -1.000000 0.000000 0.000000
vn -1.000000 0.000000 0.000000
vn -1.000000 0.000000 0.000000
vn 0.000000 0.000000 1.000000
vn 0.000000 0.000000 1.000000
vn 0.000000 0.000000 1.000000
vn 0.000000 0.000000 1.000000
vn 0.000000 1.000000 0.000000
vn 0.000000 1.000000 0.000000
vn 0.000000 1.000000 0.000000
vn 0.000000 1.000000 0.000000
vn 1.000000 0.000000 0.000000
vn 1.000000 0.000000 0.000000
vn 1.000000 0.000000 0.000000
vn 1.000000 0.000000 0.000000
vn 0.000000 0.000000 -1.000000
vn 0.000000 0.000000 -1.000000
vn 0.000000 0.000000 -1.000000
vn 0.000000 0.000000 -1.000000
vn -1.000000 0.000000 0.000000
vn -1.000000 0.000000 0.000000
vn -1.000000 0.000000 0.000000
vn -1.000000 0.000000 0.000000
vn 0.000000 0.000000 1.000000
vn 0.000000 0.000000 1.000000
vn 0.000000 0.000000 1.000000
vn 0.000000 0.000000 1.000000
vn 0.000000 1.000000 0.000000
vn 0.000000 1.000000 0.000000
vn 0.000000 1.000000 0.000000
vn 0.000000 1.000000 0.000000
vn 0.999997 -0.000000 0.002289
vn 0.999997 -0.000000 0.002289
vn 0.999997 -0.000000 0.002289
vn 0.999997 -0.000000 0.002289
vn -0.448977 0.000000 -0.893543
vn -0.448977 0.000000 -0.893543
vn -0.448977 0.000000 -0.893543
vn -0.448977 0.000000 -0.893543
vn -0.999993 0.000000 0.003750
vn -0.999993 0.000000 0.003750
vn -0.999993 0.000000 0.003750
vn -0.999993 0.000000 0.003750
vn -0.703329 0.000000 0.710864
vn -0.703329 0.000000 0.710864
vn -0.703329 0.000000 0.710864
vn -0.703329 0.000000 0.710864
vn 0.000000 1.000000 0.000000
vn 0.000000 1.000000 0.000000
vn 0.000000 1.000000 0.000000
vn 0.000000 1.000000 0.000000
vn -0.999838 0.000000 0.017983
vn -0.999838 0.000000 0.017983
vn -0.999838 0.000000 0.017983
vn -0.999838 0.000000 0.017983
vn -0.703329 0.000000 0.710864
vn -0.703329 0.000000 0.710864
vn -0.703329 0.000000 0.710864
vn -0.703329 0.000000 0.710864
vn 0.999945 0.000000 -0.010467
vn 0.999945 0.000000 -0.010467
vn 0.999945 0.000000 -0.010467
vn 0.999945 0.000000 -0.010467
vn -0.448977 -0.000000 -0.893543
vn -0.448977 -0.000000 -0.893543
vn -0.448977 -0.000000 -0.893543
vn -0.448977 -0.000000 -0.893543
vn 0.000000 1.000000 0.000000
vn 0.000000 1.000000 0.000000
vn 0.000000 1.000000 0.000000
vn 0.000000 1.000000 0.000000
vn 1.000000 0.000000 0.001020
vn 1.000000 0.000000 0.001020
vn 1.000000 0.000000 0.001020
vn 1.000000 0.000000 0.001020
vn 0.438322 0.000000 -0.898818
vn 0.438322 0.000000 -0.898818
vn 0.438322 0.000000 -0.898818
vn 0.438322 0.000000 -0.898818
vn -0.999998 0.000000 -0.001839
vn -0.999998 0.000000 -0.001839
vn -0.999998 0.000000 -0.001839
vn -0.999998 0.000000 -0.001839
vn 0.402160 0.000000 0.915570
vn 0.402160 0.000000 0.915570
vn 0.402160 0.000000 0.915570
vn 0.402160 0.000000 0.915570
vn 0.000000 1.000000 0.000000
vn 0.000000 1.000000 0.000000
vn 0.000000 1.000000 0.000000
vn 0.000000 1.000000 0.000000
vn -0.999981 -0.000000 0.006206
vn -0.999981 -0.000000 0.006206
vn -0.999981 -0.000000 0.006206
vn -0.999981 -0.000000 0.006206
vn 0.453799 0.000000 0.891104
vn 0.453799 0.000000 0.891104
vn 0.453799 0.000000 0.891104
vn 0.453799 0.000000 0.891104
vn 0.999978 -0.000000 -0.006590
vn 0.999978 -0.000000 -0.006590
vn 0.999978 -0.000000 -0.006590
vn 0.999978 -0.000000 -0.006590
vn 0.458552 0.000000 -0.888667
vn 0.458552 0.000000 -0.888667
vn 0.458552 0.000000 -0.888667
vn 0.458552 0.000000 -0.888667
vn 0.000000 1.000000 0.000000
vn 0.000000 1.000000 0.000000
vn 0.000000 1.000000 0.000000
vn 0.000000 1.000000 0.000000
vn 0.999997 0.000000 0.002582
vn 0.999997 0.000000 0.002582
vn 0.999997 0.000000 0.002582
vn 0.999997 0.000000 0.002582
vn 0.551863 0.000000 -0.833935
vn 0.551863 0.000000 -0.833935
vn 0.551863 0.000000 -0.833935
vn 0.551863 0.000000 -0.833935
vn -0.999995 0.000000 -0.003258
vn -0.999995 0.000000 -0.003258
vn -0.999995 0.000000 -0.003258
vn -0.999995 0.000000 -0.003258
vn 0.509817 0.000000 0.860283
vn 0.509817 0.000000 0.860283
vn 0.509817 0.000000 0.860283
vn 0.509817 0.000000 0.860283
s off
g polySurface10
usemtl initialShadingGroup
f 1/1/1 2/2/2 3/3/3 4/4/4
f 5/5/5 6/6/6 2/2/7 1/1/8
f 6/6/9 7/7/10 3/3/11 2/2/12
f 7/7/13 8/8/14 4/4/15 3/3/16
f 8/8/17 5/5/18 1/1/19 4/4/20
f 9/9/21 10/10/22 11/11/23 12/12/24
f 13/13/25 14/14/26 10/10/27 9/9/28
f 14/14/29 15/15/30 11/11/31 10/10/32
f 15/15/33 16/16/34 12/12/35 11/11/36
f 16/16/37 13/13/38 9/9/39 12/12/40
f 17/17/41 18/18/42 19/19/43 20/20/44
f 21/21/45 22/22/46 18/18/47 17/17/48
f 22/22/49 23/23/50 19/19/51 18/18/52
f 23/23/53 24/24/54 20/20/55 19/19/56
f 24/24/57 21/21/58 17/17/59 20/20/60
f 25/25/61 26/26/62 27/27/63 28/28/64
f 29/29/65 30/30/66 26/26/67 25/25/68
f 30/30/69 31/31/70 27/27/71 26/26/72
f 31/31/73 32/32/74 28/28/75 27/27/76
f 32/32/77 29/29/78 25/25/79 28/28/80
f 33/33/81 34/34/82 35/35/83 36/36/84
f 37/37/85 38/38/86 34/34/87 33/33/88
f 38/38/89 39/39/90 35/35/91 34/34/92
f 39/39/93 40/40/94 36/36/95 35/35/96
f 40/40/97 37/37/98 33/33/99 36/36/100
f 41/41/101 42/42/102 43/43/103 44/44/104
f 45/45/105 46/46/106 42/42/107 41/41/108
f 46/46/109 47/47/110 43/43/111 42/42/112
f 47/47/113 48/48/114 44/44/115 43/43/116
f 48/48/117 45/45/118 41/41/119 44/44/120
f 49/49/121 50/50/122 51/51/123 52/52/124
f 53/53/125 54/54/126 50/50/127 49/49/128
f 54/54/129 55/55/130 51/51/131 50/50/132
f 55/55/133 56/56/134 52/52/135 51/51/136
f 56/56/137 53/53/138 49/49/139 52/52/140
f 57/57/141 58/58/142 59/59/143 60/60/144
f 61/61/145 62/62/146 58/58/147 57/57/148
f 62/62/149 63/63/150 59/59/151 58/58/152
f 63/63/153 64/64/154 60/60/155 59/59/156
f 64/64/157 61/61/158 57/57/159 60/60/160
f 66/65/161 65/66/162 67/67/163 68/68/164
f 72/69/165 69/70/166 65/66/167 66/65/168
f 69/70/169 70/71/170 67/67/171 65/66/172
f 70/71/173 71/72/174 68/68/175 67/67/176
f 71/72/177 72/69/178 66/65/179 68/68/180
f 74/73/181 73/74/182 75/75/183 76/76/184
f 80/77/185 77/78/186 73/74/187 74/73/188
f 77/78/189 78/79/190 75/75/191 73/74/192
f 78/79/193 79/80/194 76/76/195 75/75/196
f 79/80/197 80/77/198 74/73/199 76/76/200
f 82/81/201 81/82/202 83/83/203 84/84/204
f 88/85/205 85/86/206 81/82/207 82/81/208
f 85/86/209 86/87/210 83/83/211 81/82/212
f 86/87/213 87/88/214 84/84/215 83/83/216
f 87/88/217 88/85/218 82/81/219 84/84/220
f 89/89/221 90/90/222 91/91/223 92/92/224
f 93/93/225 94/94/226 90/90/227 89/89/228
f 94/94/229 95/95/230 91/91/231 90/90/232
f 95/95/233 96/96/234 92/92/235 91/91/236
f 96/96/237 93/93/238 89/89/239 92/92/240
