# Blender v2.82 (sub 7) OBJ File: ''
# www.blender.org
mtllib ShipMeshCollider.mtl
o Cube_Cube.001
v -0.711944 -0.251457 1.937435
v -0.711944 0.376023 1.937435
v -0.711944 -0.251457 -1.921346
v -0.711944 0.840552 -1.921346
v 0.711944 -0.251457 1.937435
v 0.711944 0.376023 1.937435
v 0.711944 -0.251457 -1.921346
v 0.711944 0.840552 -1.921346
v -1.606394 -0.251457 -1.567977
v -1.893741 -0.183128 1.664741
v -1.893741 0.282044 1.664741
v -1.606394 0.282044 -1.567977
v 1.606394 0.282044 -1.567977
v 1.606394 -0.251457 -1.567977
v 1.893741 -0.183128 1.664741
v 1.893741 0.282044 1.664741
v -0.711944 -0.251457 -0.006545
v -0.711944 0.840552 -0.006545
v 0.711944 -0.251457 -0.006545
v 0.711944 0.840552 -0.006545
v -1.893741 -0.183128 -0.156472
v -1.893741 0.282044 -0.156472
v 1.893741 -0.183128 -0.156472
v 1.893741 0.282044 -0.156472
v -0.711944 0.840552 -1.227822
v 0.711944 -0.251457 -1.227822
v -1.893741 0.282044 -1.056742
v 1.893741 -0.183128 -1.056742
v -0.711944 -0.251457 -1.227822
v 0.711944 0.840552 -1.227822
v -1.893741 -0.183128 -1.056742
v 1.893741 0.282044 -1.056742
v 0.000000 -0.251457 -1.921346
v 0.000000 0.840552 -1.921346
v 0.000000 -0.251457 2.027197
v 0.000000 0.376023 2.027197
v 0.000000 0.840552 -0.006545
v 0.000000 -0.251457 -0.006545
v 0.000000 -0.251457 -1.227822
v 0.000000 0.840552 -1.227822
vt 0.625000 0.750000
vt 0.375000 0.750000
vt 0.375000 0.750000
vt 0.625000 0.750000
vt 0.375000 0.375000
vt 0.625000 0.375000
vt 0.625000 0.500000
vt 0.375000 0.500000
vt 0.125000 0.625000
vt 0.125000 0.750000
vt 0.125000 0.750000
vt 0.125000 0.625000
vt 0.375000 0.875000
vt 0.625000 0.875000
vt 0.625000 1.000000
vt 0.375000 1.000000
vt 0.250000 0.625000
vt 0.375000 0.625000
vt 0.250000 0.750000
vt 0.750000 0.625000
vt 0.875000 0.625000
vt 0.875000 0.750000
vt 0.750000 0.750000
vt 0.375000 0.204726
vt 0.625000 0.204726
vt 0.625000 0.250000
vt 0.375000 0.250000
vt 0.375000 0.625000
vt 0.625000 0.625000
vt 0.375000 0.545274
vt 0.375000 0.500000
vt 0.375000 0.545274
vt 0.625000 0.250000
vt 0.375000 0.250000
vt 0.625000 1.000000
vt 0.375000 1.000000
vt 0.625000 0.625000
vt 0.625000 0.500000
vt 0.875000 0.545274
vt 0.875000 0.500000
vt 0.875000 0.500000
vt 0.875000 0.545274
vt 0.875000 0.625000
vt 0.875000 0.750000
vt 0.625000 0.545274
vt 0.625000 0.545274
vt 0.375000 0.000000
vt 0.625000 0.000000
vt 0.625000 0.125000
vt 0.375000 0.125000
vt 0.750000 0.545274
vt 0.250000 0.545274
vt 0.125000 0.545274
vt 0.125000 0.545274
vt 0.125000 0.500000
vt 0.125000 0.500000
vt 0.250000 0.500000
vt 0.750000 0.500000
vn 0.2002 0.6254 0.7542
vn 0.1417 -0.7004 0.6995
vn 0.6486 -0.5703 0.5040
vn 0.7008 0.4889 0.5195
vn 0.0000 -0.7071 -0.7071
vn 0.0000 0.7071 -0.7071
vn 0.2561 0.6779 -0.6890
vn 0.1465 -0.6739 -0.7241
vn -0.0289 -0.9996 0.0000
vn -0.1417 -0.7004 0.6995
vn -0.6486 -0.5703 0.5040
vn -0.7272 -0.6864 0.0000
vn 0.0000 -0.6800 0.7332
vn 0.0000 0.5985 0.8011
vn -0.2002 0.6254 0.7542
vn 0.0000 -1.0000 0.0000
vn 0.0289 -0.9996 0.0000
vn 0.0000 0.9934 0.1144
vn -0.1809 0.9794 0.0898
vn -0.7558 -0.6277 -0.1864
vn -0.8525 0.4900 -0.1818
vn -0.6741 0.4088 -0.6152
vn -0.5105 -0.6596 -0.5516
vn 0.7272 -0.6864 0.0000
vn 0.8262 0.5624 0.0331
vn 0.0185 -0.9997 0.0142
vn 0.5105 -0.6596 -0.5516
vn 0.7558 -0.6277 -0.1864
vn -0.2561 0.6779 -0.6890
vn -0.1465 -0.6739 -0.7241
vn -0.7008 0.4889 0.5195
vn 0.1809 0.9794 0.0898
vn 0.6741 0.4088 -0.6152
vn -0.2389 0.9705 -0.0329
vn -0.8262 0.5624 0.0331
vn 0.2389 0.9705 -0.0329
vn 0.8525 0.4900 -0.1818
vn 0.0000 1.0000 0.0000
vn -0.0185 -0.9997 0.0142
usemtl None
s 1
f 6/1/1 5/2/2 15/3/3 16/4/4
f 33/5/5 34/6/6 8/7/7 7/8/8
f 17/9/9 1/10/10 10/11/11 21/12/12
f 35/13/13 36/14/14 2/15/15 1/16/10
f 38/17/16 19/18/17 5/2/2 35/19/13
f 37/20/18 18/21/19 2/22/15 36/23/14
f 31/24/20 27/25/21 12/26/22 9/27/23
f 23/28/24 24/29/25 16/4/4 15/3/3
f 26/30/26 7/8/8 14/31/27 28/32/28
f 4/33/29 3/34/30 9/27/23 12/26/22
f 1/16/10 2/15/15 11/35/31 10/36/11
f 20/37/32 6/1/1 16/4/4 24/29/25
f 7/8/8 8/7/7 13/38/33 14/31/27
f 25/39/34 4/40/29 12/41/22 27/42/21
f 2/22/15 18/21/19 22/43/35 11/44/31
f 30/45/36 20/37/32 24/29/25 32/46/37
f 5/2/2 19/18/17 23/28/24 15/3/3
f 28/32/28 32/46/37 24/29/25 23/28/24
f 10/47/11 11/48/31 22/49/35 21/50/12
f 40/51/38 25/39/34 18/21/19 37/20/18
f 39/52/16 26/30/26 19/18/17 38/17/16
f 29/53/39 17/9/9 21/12/12 31/54/20
f 3/55/30 29/53/39 31/54/20 9/56/23
f 33/57/5 7/8/8 26/30/26 39/52/16
f 34/58/6 4/40/29 25/39/34 40/51/38
f 14/31/27 13/38/33 32/46/37 28/32/28
f 8/7/7 30/45/36 32/46/37 13/38/33
f 18/21/19 25/39/34 27/42/21 22/43/35
f 19/18/17 26/30/26 28/32/28 23/28/24
f 21/50/12 22/49/35 27/25/21 31/24/20
f 8/7/7 34/58/6 40/51/38 30/45/36
f 3/55/30 33/57/5 39/52/16 29/53/39
f 29/53/39 39/52/16 38/17/16 17/9/9
f 30/45/36 40/51/38 37/20/18 20/37/32
f 20/37/32 37/20/18 36/23/14 6/1/1
f 17/9/9 38/17/16 35/19/13 1/10/10
f 5/2/2 6/1/1 36/14/14 35/13/13
f 3/34/30 4/33/29 34/6/6 33/5/5
