# This file uses centimeters as units for non-parametric coordinates.

mtllib SkullPlane.mtl
g default
v 0.809017 1.093792 -0.264530
v 0.809017 1.093792 0.243685
v 1.000000 1.093792 0.000000
v 0.769421 1.402809 -0.445777
v 0.769421 1.402809 0.421749
v 0.951056 1.402809 0.000000
v 0.654508 1.646078 -0.423400
v 0.654508 1.642249 0.427356
v 0.809017 1.681577 0.000000
v 0.475528 1.826918 -0.345492
v 0.475528 1.808029 0.345491
v 0.587785 1.902809 0.000000
vt 0.338749 0.394904
vt 0.507986 0.394904
vt 0.507986 0.507676
vt 0.347032 0.507676
vt 0.677223 0.394904
vt 0.668940 0.507676
vt 0.507986 0.609410
vt 0.371070 0.609410
vt 0.644901 0.609410
vt 0.507986 0.690146
vt 0.408511 0.690146
vt 0.607461 0.690146
vn 0.872411 -0.015768 0.488518
vn 0.999899 -0.014198 -0.000908
vn 0.999899 -0.014208 0.000474
vn 0.872411 -0.015768 0.488518
vn 0.885509 -0.009371 -0.464528
vn 0.885509 -0.009371 -0.464528
vn 0.840173 0.412792 0.351727
vn 0.894191 0.447683 -0.001416
vn 0.894193 0.447679 -0.001226
vn 0.840173 0.412792 0.351727
vn 0.837451 0.426831 -0.341307
vn 0.837451 0.426831 -0.341307
vn 0.618096 0.710384 0.336619
vn 0.665739 0.746155 0.006710
vn 0.665882 0.746055 0.001818
vn 0.618096 0.710384 0.336619
vn 0.638791 0.698386 -0.322804
vn 0.638791 0.698386 -0.322804
s 1
g polySurface2 pSphere1
usemtl initialShadingGroup
f 2/1/1 3/2/2 6/3/3 5/4/4
f 3/2/2 1/5/5 4/6/6 6/3/3
s 2
f 5/4/7 6/3/8 9/7/9 8/8/10
f 6/3/8 4/6/11 7/9/12 9/7/9
s 3
f 8/8/13 9/7/14 12/10/15 11/11/16
f 9/7/14 7/9/17 10/12/18 12/10/15
