# This file uses centimeters as units for non-parametric coordinates.

mtllib StartTrackSideBars.mtl
g default
v 12.654260 0.629719 -58.994393
v 12.674947 0.811354 -59.243531
v 12.700517 0.811354 -59.551491
v 12.721204 0.629719 -59.800633
v 12.729106 0.335826 -59.895798
v 12.721204 0.041933 -59.800633
v 12.700517 -0.139702 -59.551491
v 12.674947 -0.139702 -59.243531
v 12.654260 0.041933 -58.994393
v 12.646359 0.335826 -58.899224
v 12.687732 0.335826 -59.397511
v 13.437152 0.724860 -3.427788
v 13.187152 0.906496 -3.427788
v 12.878135 0.906496 -3.427788
v 12.628135 0.724860 -3.427788
v 12.532644 0.430967 -3.427788
v 12.628135 0.137075 -3.427788
v 12.878135 -0.044561 -3.427788
v 13.187152 -0.044561 -3.427788
v 13.437152 0.137075 -3.427788
v 13.532644 0.430967 -3.427788
v 14.002543 0.724860 -2.313767
v 13.993586 0.906496 -2.063927
v 13.988051 0.430967 -1.909518
v 13.982515 0.906496 -1.755108
v 13.973560 0.724860 -1.505267
v 13.970139 0.430967 -1.409838
v 13.973560 0.137075 -1.505267
v 13.982515 -0.044561 -1.755108
v 13.993586 -0.044561 -2.063927
v 14.002543 0.137075 -2.313765
v 14.005964 0.430967 -2.409197
v 13.523904 0.724860 -3.093796
v 14.213986 0.724860 -2.460312
v 13.382036 0.906496 -2.842944
v 14.089326 0.906496 -2.223656
v 13.221324 0.906496 -2.543057
v 13.934563 0.906496 -1.934742
v 13.097592 0.724860 -2.305548
v 13.808431 0.724860 -1.703274
v 13.051549 0.430967 -2.214905
v 13.760496 0.430967 -1.615292
v 13.097592 0.137075 -2.305548
v 13.808431 0.137075 -1.703274
v 13.221324 -0.044561 -2.543057
v 13.934563 -0.044561 -1.934742
v 13.382036 -0.044561 -2.842944
v 14.089326 -0.044561 -2.223656
v 13.523904 0.137075 -3.093794
v 14.213986 0.137075 -2.460310
v 13.583379 0.430967 -3.190083
v 14.262973 0.430967 -2.551644
v 12.153740 0.636952 -55.664772
v 12.249231 0.343059 -55.664772
v 12.153740 0.049167 -55.664772
v 11.903740 -0.132469 -55.664772
v 11.594722 -0.132469 -55.664772
v 11.344722 0.049167 -55.664772
v 11.249231 0.343059 -55.664772
v 11.344722 0.636952 -55.664772
v 11.594722 0.818588 -55.664772
v 11.903740 0.818588 -55.664772
v 12.401818 0.664794 -58.498383
v 12.120396 0.634234 -57.421929
v 11.902518 0.815845 -57.573838
v 12.275800 0.867148 -58.674652
v 11.636018 0.815762 -57.804398
v 12.063415 0.867435 -58.854435
v 11.424290 0.634052 -58.004299
v 11.861090 0.665458 -58.990494
v 11.344365 0.340130 -58.082905
v 11.779618 0.338356 -59.042668
v 11.424308 0.046266 -58.004601
v 11.860810 0.011092 -58.990265
v 11.636026 -0.135295 -57.804627
v 12.063201 -0.191352 -58.854237
v 11.902521 -0.135211 -57.573529
v 12.276057 -0.191640 -58.674939
v 12.120426 0.046450 -57.421273
v 12.402226 0.010425 -58.498947
v 12.202994 0.340327 -57.379589
v 12.438563 0.337601 -58.418949
vt 0.626409 0.064409
vt 0.548284 0.007647
vt 0.451716 0.007647
vt 0.373591 0.064409
vt 0.343750 0.156250
vt 0.373591 0.248091
vt 0.451716 0.304853
vt 0.548284 0.304853
vt 0.626409 0.248091
vt 0.656250 0.156250
vt 0.500000 0.150000
vt 0.500000 0.837500
vt 0.375000 0.667358
vt 0.625000 0.678915
vt 0.617669 0.688440
vt 0.375000 0.688440
vt 0.375000 0.688440
vt 0.400000 0.688440
vt 0.400000 0.688440
vt 0.425000 0.688440
vt 0.425266 0.688440
vt 0.450000 0.688440
vt 0.467685 0.688440
vt 0.482315 0.688440
vt 0.500000 0.688440
vt 0.524734 0.688440
vt 0.525000 0.688440
vt 0.550000 0.688440
vt 0.550000 0.688440
vt 0.575000 0.688440
vt 0.575000 0.688440
vt 0.582331 0.688440
vt 0.600000 0.688440
vt 0.400000 0.667358
vt 0.375000 0.678915
vt 0.425000 0.667358
vt 0.400000 0.680939
vt 0.450000 0.667358
vt 0.425000 0.682534
vt 0.475000 0.667358
vt 0.450000 0.683414
vt 0.500000 0.667358
vt 0.475000 0.683695
vt 0.525000 0.667358
vt 0.500000 0.683414
vt 0.550000 0.667358
vt 0.525000 0.682534
vt 0.575000 0.667358
vt 0.550000 0.680939
vt 0.600000 0.667358
vt 0.575000 0.678915
vt 0.625000 0.667358
vt 0.600000 0.677900
vt 0.548284 0.992353
vt 0.626409 0.935591
vt 0.451716 0.992353
vt 0.548284 0.992353
vt 0.373591 0.935591
vt 0.451716 0.992353
vt 0.343750 0.843750
vt 0.373591 0.935591
vt 0.373591 0.751909
vt 0.343750 0.843750
vt 0.451716 0.695147
vt 0.373591 0.751909
vt 0.548284 0.695147
vt 0.451716 0.695147
vt 0.626409 0.751909
vt 0.548284 0.695147
vt 0.656250 0.843750
vt 0.626409 0.751909
vt 0.626409 0.935591
vt 0.656250 0.843750
vt 0.625000 0.339479
vt 0.625000 0.319266
vt 0.375000 0.329343
vt 0.375000 0.325966
vt 0.400000 0.329249
vt 0.375000 0.339479
vt 0.425000 0.328939
vt 0.400000 0.339479
vt 0.450000 0.328662
vt 0.425000 0.339479
vt 0.475000 0.328554
vt 0.450000 0.339479
vt 0.500000 0.328660
vt 0.475000 0.339479
vt 0.525000 0.328938
vt 0.500000 0.339479
vt 0.550000 0.329251
vt 0.525000 0.339479
vt 0.575000 0.329346
vt 0.550000 0.339479
vt 0.600000 0.329289
vt 0.575000 0.339479
vt 0.625000 0.329343
vt 0.600000 0.339479
vt 0.375000 0.312500
vt 0.400000 0.312500
vt 0.375000 0.319266
vt 0.425000 0.312500
vt 0.400000 0.319747
vt 0.450000 0.312500
vt 0.425000 0.320709
vt 0.475000 0.312500
vt 0.450000 0.321491
vt 0.500000 0.312500
vt 0.475000 0.321764
vt 0.525000 0.312500
vt 0.500000 0.321493
vt 0.550000 0.312500
vt 0.525000 0.320711
vt 0.575000 0.312500
vt 0.550000 0.319743
vt 0.600000 0.312500
vt 0.575000 0.319259
vt 0.625000 0.312500
vt 0.600000 0.319234
vn 0.996571 -0.000001 0.082747
vn 0.957960 0.089554 0.272567
vn 0.996571 0.000000 0.082747
vn 0.996571 0.000000 0.082747
vn 0.996571 -0.000000 0.082747
vn 0.996571 0.000000 0.082746
vn 0.996571 0.000001 0.082747
vn 0.996571 -0.000001 0.082747
vn 0.996571 0.000001 0.082747
vn 0.958006 -0.089297 0.272489
vn 0.937188 -0.000096 0.348825
vn 0.999358 -0.000000 0.035827
vn 0.999358 0.000001 0.035827
vn 0.999358 -0.000000 0.035825
vn 0.999358 0.000002 0.035824
vn 0.999358 0.000001 0.035823
vn 0.999358 -0.000000 0.035824
vn 0.999358 -0.000001 0.035823
vn 0.999358 -0.000002 0.035825
vn 0.999358 -0.000001 0.035827
vn 0.999358 0.000000 0.035826
vn 0.999358 0.000000 0.035826
vn 0.640360 0.338268 -0.689575
vn 0.640361 0.338268 -0.689575
vn 0.640360 0.338268 -0.689575
vn 0.640360 0.338268 -0.689575
vn 0.423341 0.818247 -0.388914
vn 0.475652 0.818578 -0.322001
vn 0.422106 0.826697 -0.372019
vn 0.605176 0.746578 -0.276377
vn -0.000000 1.000000 0.000000
vn -0.000000 1.000000 0.000000
vn -0.000000 1.000000 0.000000
vn -0.000000 1.000000 0.000000
vn -0.395521 0.811231 0.430658
vn -0.514006 0.796220 0.319110
vn -0.459491 0.808726 0.367192
vn -0.424480 0.800664 0.422793
vn -0.612599 0.317864 0.723661
vn -0.612598 0.317864 0.723661
vn -0.612598 0.317864 0.723661
vn -0.612598 0.317864 0.723661
vn -0.612599 -0.317864 0.723661
vn -0.612598 -0.317864 0.723661
vn -0.612598 -0.317864 0.723661
vn -0.612599 -0.317864 0.723661
vn -0.424480 -0.800664 0.422793
vn -0.459491 -0.808726 0.367192
vn -0.514007 -0.796220 0.319110
vn -0.395521 -0.811231 0.430658
vn 0.000000 -1.000000 -0.000000
vn 0.000000 -1.000000 -0.000000
vn 0.000000 -1.000000 -0.000000
vn 0.000000 -1.000000 -0.000000
vn 0.605178 -0.746576 -0.276378
vn 0.422108 -0.826695 -0.372021
vn 0.475654 -0.818577 -0.322002
vn 0.423344 -0.818244 -0.388917
vn 0.640359 -0.338275 -0.689573
vn 0.640359 -0.338275 -0.689573
vn 0.640359 -0.338275 -0.689573
vn 0.640359 -0.338275 -0.689573
vn 0.587936 0.808720 -0.017445
vn 0.587874 0.808774 -0.016990
vn -0.000000 0.999999 -0.001656
vn -0.000000 0.999999 -0.001666
vn -0.588212 0.808502 0.018182
vn -0.588051 0.808657 0.016439
vn -0.950700 0.308477 0.031804
vn -0.950721 0.308548 0.030462
vn -0.886372 0.271285 0.375165
vn -0.886372 0.271285 0.375165
vn -0.950691 -0.308537 0.031495
vn -0.950669 -0.308468 0.032800
vn -0.886372 -0.271285 0.375165
vn -0.886372 -0.271285 0.375165
vn -0.588023 -0.808618 0.019126
vn -0.588181 -0.808461 0.020838
vn 0.000000 -0.999999 0.001666
vn 0.000000 -0.999999 0.001656
vn 0.587898 -0.808809 -0.014285
vn 0.587961 -0.808755 -0.014751
vn 0.950816 -0.308832 -0.023900
vn 0.950817 -0.308820 -0.024014
vn 0.932639 -0.282629 -0.224289
vn 0.932639 -0.282629 -0.224289
vn 0.950793 0.308813 -0.025044
vn 0.950792 0.308824 -0.024936
vn 0.932639 0.282626 -0.224290
vn 0.932639 0.282626 -0.224290
vn 0.581501 -0.567189 0.583226
vn 0.581501 -0.567189 0.583226
vn 0.000000 1.000000 -0.000000
vn 0.000000 1.000000 -0.000000
vn -0.623598 0.698084 0.351859
vn -0.623598 0.698084 0.351859
vn -0.706200 0.266396 0.655984
vn -0.706200 0.266396 0.655984
vn -0.706200 0.266396 0.655984
vn -0.706200 0.266396 0.655984
vn -0.706200 -0.266396 0.655984
vn -0.706200 -0.266396 0.655984
vn -0.706200 -0.266396 0.655984
vn -0.706200 -0.266396 0.655984
vn -0.623599 -0.698083 0.351859
vn -0.623599 -0.698083 0.351859
vn -0.000001 -1.000000 0.000000
vn -0.000001 -1.000000 0.000000
vn 0.581506 0.567179 0.583231
vn 0.581506 0.567179 0.583231
vn 0.512383 0.218224 0.830567
vn 0.512383 0.218224 0.830567
vn 0.512383 0.218224 0.830567
vn 0.512383 0.218224 0.830567
vn 0.512384 -0.218219 0.830568
vn 0.512384 -0.218219 0.830568
vn 0.512384 -0.218219 0.830568
vn 0.512384 -0.218219 0.830568
vn 0.950997 0.308280 -0.023833
vn 0.951000 0.308271 -0.023832
vn 0.951023 -0.308278 -0.022797
vn 0.951019 -0.308292 -0.022798
vn 0.588617 -0.808311 -0.012800
vn 0.588585 -0.808334 -0.012810
vn -0.000014 -0.999999 0.001672
vn -0.000014 -0.999999 0.001672
vn -0.588766 -0.808172 0.014572
vn -0.588771 -0.808169 0.014566
vn -0.951101 -0.308140 0.021352
vn -0.951104 -0.308134 0.021332
vn -0.951122 0.308146 0.020316
vn -0.951122 0.308147 0.020319
vn -0.588774 0.808211 0.011875
vn -0.588773 0.808211 0.011875
vn 0.000014 0.999999 -0.001672
vn 0.000014 0.999999 -0.001672
vn 0.588580 0.808290 -0.015520
vn 0.588608 0.808270 -0.015511
vn 0.930731 0.202250 0.304687
vn 0.960307 0.264448 0.088756
vn 0.997240 0.000161 0.074249
vn 0.956116 0.000069 0.292988
vn 0.621288 0.781800 0.052831
vn 0.647283 0.718297 0.255096
vn 0.663484 0.690058 0.289151
vn 0.625291 0.773157 0.106015
vn -0.006813 0.999950 0.007376
vn -0.000014 0.999846 0.017575
vn 0.011153 0.999880 0.010737
vn -0.016954 0.999663 0.019664
vn -0.604833 0.793795 -0.063769
vn -0.528946 0.775525 -0.344640
vn -0.528789 0.775425 -0.345104
vn -0.593627 0.796565 -0.114413
vn -0.944742 0.298844 -0.134744
vn -0.769564 0.280851 -0.573493
vn -0.804502 0.000135 -0.593950
vn -0.938187 0.301262 -0.170430
vn -0.938492 -0.301003 -0.169203
vn -0.770039 -0.280465 -0.573045
vn -0.944858 -0.298683 -0.134280
vn -0.594765 -0.796048 -0.112080
vn -0.531288 -0.774702 -0.342886
vn -0.531262 -0.774685 -0.342964
vn -0.605558 -0.793404 -0.061729
vn -0.019280 -0.999558 0.022638
vn 0.006350 -0.999893 0.013163
vn -0.004347 -0.999788 0.020105
vn -0.008241 -0.999914 0.010201
vn 0.623880 -0.773887 0.108962
vn 0.660774 -0.691565 0.291745
vn 0.644579 -0.719829 0.257612
vn 0.620317 -0.782407 0.055192
vn 0.960255 -0.264239 0.089932
vn 0.930371 -0.201818 0.306073
vn 0.699135 0.608208 0.375890
vn 0.699135 0.608208 0.375890
vn 0.073806 0.996888 -0.027683
vn 0.073806 0.996888 -0.027683
vn -0.464212 0.727344 -0.505449
vn -0.464212 0.727344 -0.505449
vn -0.652865 0.247229 -0.715992
vn -0.674162 -0.000370 -0.738584
vn -0.653628 -0.247073 -0.715350
vn -0.467267 -0.726433 -0.503942
vn -0.467267 -0.726433 -0.503942
vn 0.067357 -0.997378 -0.026481
vn 0.067357 -0.997378 -0.026481
vn 0.696196 -0.610243 0.378040
vn 0.696196 -0.610243 0.378040
s 1
g pCylinder1
usemtl initialShadingGroup
f 2/2/1 1/1/2 11/11/3
f 3/3/4 2/2/1 11/11/3
f 4/4/5 3/3/4 11/11/3
f 5/5/6 4/4/5 11/11/3
f 6/6/7 5/5/6 11/11/3
f 7/7/8 6/6/7 11/11/3
f 8/8/9 7/7/8 11/11/3
f 9/9/10 8/8/9 11/11/3
f 10/10/11 9/9/10 11/11/3
f 1/1/2 10/10/11 11/11/3
s 2
f 22/55/12 23/57/13 24/12/14
f 23/57/13 25/59/15 24/12/14
f 25/59/15 26/61/16 24/12/14
f 26/61/16 27/63/17 24/12/14
f 27/63/17 28/65/18 24/12/14
f 28/65/18 29/67/19 24/12/14
f 29/67/19 30/69/20 24/12/14
f 30/69/20 31/71/21 24/12/14
f 31/71/21 32/73/22 24/12/14
f 32/73/22 22/55/12 24/12/14
s off
f 33/14/23 34/15/24 52/33/25 51/53/26
s 3
f 34/16/27 33/35/28 35/37/29 36/17/30
s 4
f 36/18/31 35/37/32 37/39/33 38/19/34
s 5
f 38/20/35 37/39/36 39/41/37 40/21/38
s off
f 40/22/39 39/41/40 41/43/41 42/23/42
f 42/24/43 41/43/44 43/45/45 44/25/46
s 6
f 44/26/47 43/45/48 45/47/49 46/27/50
s 7
f 46/28/51 45/47/52 47/49/53 48/29/54
s 8
f 48/30/55 47/49/56 49/51/57 50/31/58
s off
f 50/32/59 49/51/60 51/53/61 52/33/62
s 3
f 12/13/63 13/34/64 35/37/29 33/35/28
s 4
f 13/34/65 14/36/66 37/39/33 35/37/32
s 5
f 14/36/67 15/38/68 39/41/37 37/39/36
s 9
f 15/38/69 16/40/70 41/43/71 39/41/72
f 16/40/73 17/42/74 43/45/75 41/43/76
s 6
f 17/42/77 18/44/78 45/47/49 43/45/48
s 7
f 18/44/79 19/46/80 47/49/53 45/47/52
s 8
f 19/46/81 20/48/82 49/51/57 47/49/56
s 1
f 20/48/83 21/50/84 51/53/85 49/51/86
f 21/50/87 12/52/88 33/14/89 51/53/90
s 3
f 34/72/27 36/54/30 23/57/91 22/55/92
s 4
f 36/54/31 38/56/34 25/59/93 23/57/94
s 5
f 38/56/35 40/58/38 26/61/95 25/59/96
s off
f 40/58/97 42/60/98 27/63/99 26/61/100
f 42/60/101 44/62/102 28/65/103 27/63/104
s 6
f 44/62/47 46/64/50 29/67/105 28/65/106
s 7
f 46/64/51 48/66/54 30/69/107 29/67/108
s 8
f 48/66/55 50/68/58 31/71/109 30/69/110
s off
f 50/68/111 52/70/112 32/73/113 31/71/114
f 52/70/115 34/72/116 22/55/117 32/73/118
s 1
f 54/97/119 53/74/120 12/52/88 21/50/87
f 55/95/121 54/97/122 21/50/84 20/48/83
s 8
f 56/93/123 55/95/124 20/48/82 19/46/81
s 7
f 57/91/125 56/93/126 19/46/80 18/44/79
s 6
f 58/89/127 57/91/128 18/44/78 17/42/77
s 9
f 59/87/129 58/89/130 17/42/74 16/40/73
f 60/85/131 59/87/132 16/40/70 15/38/69
s 5
f 61/83/133 60/85/134 15/38/68 14/36/67
s 4
f 62/81/135 61/83/136 14/36/66 13/34/65
s 3
f 53/79/137 62/81/138 13/34/64 12/13/63
s 1
f 63/75/139 64/96/140 81/94/141 82/118/142
s 3
f 64/76/143 63/77/144 66/102/145 65/78/146
s 4
f 65/78/147 66/102/148 68/104/149 67/80/150
s 5
f 67/80/151 68/104/152 70/106/153 69/82/154
s 9
f 69/82/155 70/106/156 72/108/157 71/84/158
f 71/84/159 72/108/157 74/110/160 73/86/161
s 6
f 73/86/162 74/110/163 76/112/164 75/88/165
s 7
f 75/88/166 76/112/167 78/114/168 77/90/169
s 8
f 77/90/170 78/114/171 80/116/172 79/92/173
s 1
f 79/92/174 80/116/175 82/118/142 81/94/141
s 3
f 64/76/143 65/78/146 62/81/138 53/79/137
s 4
f 65/78/147 67/80/150 61/83/136 62/81/135
s 5
f 67/80/151 69/82/154 60/85/134 61/83/133
s 9
f 69/82/155 71/84/158 59/87/132 60/85/131
f 71/84/159 73/86/161 58/89/130 59/87/129
s 6
f 73/86/162 75/88/165 57/91/128 58/89/127
s 7
f 75/88/166 77/90/169 56/93/126 57/91/125
s 8
f 77/90/170 79/92/173 55/95/124 56/93/123
s 1
f 79/92/174 81/94/141 54/97/122 55/95/121
f 81/94/141 64/96/140 53/74/120 54/97/119
s 3
f 1/98/176 2/99/177 66/102/145 63/100/144
s 4
f 2/99/178 3/101/179 68/104/149 66/102/148
s 5
f 3/101/180 4/103/181 70/106/153 68/104/152
s 9
f 4/103/182 5/105/183 72/108/157 70/106/156
f 5/105/183 6/107/184 74/110/160 72/108/157
s 6
f 6/107/185 7/109/186 76/112/164 74/110/163
s 7
f 7/109/187 8/111/188 78/114/168 76/112/167
s 8
f 8/111/189 9/113/190 80/116/172 78/114/171
s 1
f 9/113/10 10/115/11 82/118/142 80/116/175
f 10/115/11 1/117/2 63/75/139 82/118/142
