# This file uses centimeters as units for non-parametric coordinates.

mtllib BarrierWarning.mtl
g default
v -0.106187 0.815712 0.323088
v -0.023290 0.815712 0.323088
v -0.106187 1.525715 0.323088
v -0.023290 1.525715 0.323088
v -0.106187 1.525715 -0.500000
v -0.023290 1.525715 -0.500000
v -0.106187 0.815712 -0.500000
v -0.023290 0.815712 -0.500000
v -0.106187 1.525715 -1.298203
v -0.023290 1.573310 -1.298203
v -0.023290 0.815712 -1.298203
v -0.106187 0.815712 -1.298203
v -0.106187 1.875322 -2.489760
v -0.023290 1.875322 -2.489760
v -0.023290 0.971643 -2.489760
v -0.106187 0.981576 -2.489760
v -0.106187 1.532959 -4.037555
v -0.023290 1.532959 -4.037555
v -0.023290 0.712923 -4.037555
v -0.106187 0.712923 -4.037555
v -0.106187 0.815712 1.042240
v -0.023290 0.815712 1.042240
v -0.023290 1.525715 1.042240
v -0.106187 1.525715 1.042240
v -0.106187 1.001855 2.566613
v -0.023290 0.983275 2.566613
v -0.023290 1.972022 2.566613
v -0.106187 1.870103 2.566613
v -0.106187 0.756943 3.988998
v -0.023290 0.753916 3.988998
v -0.023290 1.727111 3.988998
v -0.106187 1.625191 3.988998
vt 1.757837 0.529188
vt 1.682188 0.528194
vt 1.845985 0.520355
vt 1.856189 0.520222
vt 1.847886 0.614403
vt 1.573394 0.642839
vt 1.774487 0.621465
vt 1.693403 0.656165
vt 1.848359 0.689816
vt 1.467119 0.660984
vt 1.632791 0.736323
vt 1.788787 0.694963
vt 1.873223 0.776349
vt 1.279721 0.640786
vt 1.553969 0.780407
vt 1.814222 0.782004
vt 1.859416 0.869646
vt 1.052158 0.726062
vt 1.440685 0.863687
vt 1.814489 0.875155
vt 1.757837 0.417205
vt 1.675880 0.431510
vt 1.855599 0.424552
vt 1.845757 0.423040
vt 1.794509 0.243955
vt 1.637347 0.182376
vt 1.901585 0.250107
vt 1.887498 0.249908
vt 1.787863 0.103980
vt 1.666353 0.109126
vt 1.878573 0.106288
vt 1.867044 0.110061
vt 1.441099 0.137523
vt 1.443457 0.301252
vt 1.525094 0.462050
vt 1.540132 0.542454
vt 1.862736 0.871799
vt 1.878528 0.776136
vt 1.856134 0.689320
vt 1.856522 0.614380
vn 0.000004 0.000000 1.000000
vn 0.000004 0.000000 1.000000
vn 0.000004 0.000000 1.000000
vn 0.000004 0.000000 1.000000
vn 0.000000 1.000000 0.000000
vn 0.000000 1.000000 0.000000
vn 0.000000 1.000000 0.000000
vn 0.000000 1.000000 0.000000
vn 0.000000 0.000000 -1.000000
vn 0.000000 0.000000 -1.000000
vn 0.000000 0.000000 -1.000000
vn 0.000000 0.000000 -1.000000
vn 0.000000 -1.000000 0.000000
vn 0.000000 -1.000000 0.000000
vn 0.000000 -1.000000 0.000000
vn 0.000000 -1.000000 0.000000
vn 1.000000 0.000000 0.000000
vn 1.000000 0.000000 0.000000
vn 1.000000 0.000000 0.000000
vn 1.000000 0.000000 0.000000
vn -1.000000 0.000000 0.000000
vn -1.000000 0.000000 0.000000
vn -1.000000 0.000000 0.000000
vn -1.000000 0.000000 0.000000
vn -0.275814 0.960784 0.028645
vn -0.275814 0.960784 0.028645
vn -0.275814 0.960784 0.028645
vn -0.275814 0.960784 0.028645
vn 1.000000 0.000000 0.000000
vn 1.000000 0.000000 0.000000
vn 1.000000 0.000000 0.000000
vn 1.000000 0.000000 0.000000
vn 0.000000 -1.000000 0.000000
vn 0.000000 -1.000000 0.000000
vn 0.000000 -1.000000 0.000000
vn 0.000000 -1.000000 0.000000
vn -1.000000 0.000000 0.000000
vn -1.000000 0.000000 0.000000
vn -1.000000 0.000000 0.000000
vn -1.000000 0.000000 0.000000
vn -0.266865 0.929609 0.254184
vn -0.266865 0.929609 0.254184
vn -0.266865 0.929609 0.254184
vn -0.266865 0.929609 0.254184
vn 1.000000 0.000000 0.000000
vn 1.000000 0.000000 0.000000
vn 1.000000 0.000000 0.000000
vn 1.000000 0.000000 0.000000
vn -0.059266 -0.989264 -0.133582
vn -0.059266 -0.989264 -0.133582
vn -0.059266 -0.989264 -0.133582
vn -0.059266 -0.989264 -0.133582
vn -1.000000 0.000000 0.000000
vn -1.000000 0.000000 0.000000
vn -1.000000 0.000000 0.000000
vn -1.000000 0.000000 0.000000
vn 0.000000 0.976399 -0.215974
vn 0.000000 0.976399 -0.215974
vn 0.000000 0.976399 -0.215974
vn 0.000000 0.976399 -0.215974
vn 1.000000 0.000000 0.000000
vn 1.000000 0.000000 0.000000
vn 1.000000 0.000000 0.000000
vn 1.000000 0.000000 0.000000
vn -0.058956 -0.984082 0.167651
vn -0.058956 -0.984082 0.167651
vn -0.058956 -0.984082 0.167651
vn -0.058956 -0.984082 0.167651
vn -1.000000 0.000000 0.000000
vn -1.000000 0.000000 0.000000
vn -1.000000 0.000000 0.000000
vn -1.000000 0.000000 0.000000
vn 0.000000 -1.000000 0.000000
vn 0.000000 -1.000000 0.000000
vn 0.000000 -1.000000 0.000000
vn 0.000000 -1.000000 0.000000
vn 1.000000 0.000000 0.000000
vn 1.000000 0.000000 0.000000
vn 1.000000 0.000000 0.000000
vn 1.000000 0.000000 0.000000
vn 0.000000 1.000000 0.000000
vn 0.000000 1.000000 0.000000
vn 0.000000 1.000000 0.000000
vn 0.000000 1.000000 0.000000
vn -1.000000 0.000000 0.000000
vn -1.000000 0.000000 0.000000
vn -1.000000 0.000000 0.000000
vn -1.000000 0.000000 0.000000
vn -0.110635 -0.987239 0.114537
vn -0.110635 -0.987239 0.114537
vn -0.110635 -0.987239 0.114537
vn -0.110635 -0.987239 0.114537
vn 1.000000 0.000000 0.000000
vn 1.000000 0.000000 0.000000
vn 1.000000 0.000000 0.000000
vn 1.000000 0.000000 0.000000
vn -0.511365 0.831843 -0.215739
vn -0.511365 0.831843 -0.215739
vn -0.511365 0.831843 -0.215739
vn -0.511365 0.831843 -0.215739
vn -1.000000 0.000000 0.000000
vn -1.000000 0.000000 0.000000
vn -1.000000 0.000000 0.000000
vn -1.000000 0.000000 0.000000
vn -0.127499 -0.978336 -0.163105
vn -0.127499 -0.978336 -0.163105
vn -0.127499 -0.978336 -0.163105
vn -0.127499 -0.978336 -0.163105
vn 1.000000 0.000000 0.000000
vn 1.000000 0.000000 0.000000
vn 1.000000 0.000000 0.000000
vn 1.000000 0.000000 0.000000
vn -0.771250 0.627301 0.108011
vn -0.771250 0.627301 0.108011
vn -0.771250 0.627301 0.108011
vn -0.771250 0.627301 0.108011
vn -1.000000 0.000000 0.000000
vn -1.000000 0.000000 0.000000
vn -1.000000 0.000000 0.000000
vn -1.000000 0.000000 0.000000
s off
g pCube3
usemtl initialShadingGroup
f 29/29/1 30/30/2 31/31/3 32/32/4
f 3/3/5 4/4/6 6/40/7 5/5/8
f 17/17/9 18/37/10 19/19/11 20/20/12
f 7/7/13 8/8/14 2/2/15 1/1/16
f 2/2/17 8/8/18 6/6/19 4/36/20
f 7/7/21 1/1/22 3/3/23 5/5/24
f 5/5/25 6/40/26 10/39/27 9/9/28
f 6/6/29 8/8/30 11/11/31 10/10/32
f 8/8/33 7/7/34 12/12/35 11/11/36
f 7/7/37 5/5/38 9/9/39 12/12/40
f 9/9/41 10/39/42 14/38/43 13/13/44
f 10/10/45 11/11/46 15/15/47 14/14/48
f 11/11/49 12/12/50 16/16/51 15/15/52
f 12/12/53 9/9/54 13/13/55 16/16/56
f 13/13/57 14/38/58 18/37/59 17/17/60
f 14/14/61 15/15/62 19/19/63 18/18/64
f 15/15/65 16/16/66 20/20/67 19/19/68
f 16/16/69 13/13/70 17/17/71 20/20/72
f 1/1/73 2/2/74 22/22/75 21/21/76
f 2/2/77 4/36/78 23/35/79 22/22/80
f 4/4/81 3/3/82 24/24/83 23/23/84
f 3/3/85 1/1/86 21/21/87 24/24/88
f 21/21/89 22/22/90 26/26/91 25/25/92
f 22/22/93 23/35/94 27/34/95 26/26/96
f 23/23/97 24/24/98 28/28/99 27/27/100
f 24/24/101 21/21/102 25/25/103 28/28/104
f 25/25/105 26/26/106 30/30/107 29/29/108
f 26/26/109 27/34/110 31/33/111 30/30/112
f 27/27/113 28/28/114 32/32/115 31/31/116
f 28/28/117 25/25/118 29/29/119 32/32/120
