# Blender v2.82 (sub 7) OBJ File: ''
# www.blender.org
mtllib Building #1 Hitbox.mtl
o BuildingRoof.001
v 1.000000 7.000000 -0.999999
v -2.000000 7.000000 0.000001
v -1.000000 7.000000 2.000001
v 2.000000 7.000000 2.000001
v -1.000000 0.000000 -1.000000
v -1.000000 0.000000 0.000000
v -2.000000 0.000000 0.000000
v -2.000000 -0.000000 1.000000
v -1.000000 -0.000000 1.000000
v -1.000000 -0.000000 2.000000
v 2.000000 -0.000000 2.000000
v 2.000000 0.000000 0.000000
v 1.000000 0.000000 0.000000
v 1.000000 0.000000 -1.000000
v -1.000000 7.000000 -0.999999
v -1.000000 7.000000 0.000001
v -2.000000 7.000000 1.000001
v -1.000000 7.000000 1.000001
v 2.000000 7.000000 0.000001
v 1.000000 7.000000 0.000001
vt 0.000000 0.000000
vt 0.000000 1.000000
vt 1.000000 1.000000
vt 1.000000 0.000000
vt 1.000000 0.000000
vt 0.000000 1.000000
vt 1.000000 1.000000
vt 1.000000 1.000000
vt 1.000000 1.000000
vt 1.000000 0.000000
vt 0.000000 1.000000
vt 0.000000 1.000000
vt 1.000000 1.000000
vt 0.000000 1.000000
vt 0.000000 0.000000
vt 1.000000 0.000000
vt 0.000000 0.000000
vt 1.000000 0.000000
vt 0.000000 1.000000
vt 1.000000 0.000000
vt 0.000000 0.000000
vt 0.000000 0.000000
vt 1.000000 0.000000
vt 1.000000 1.000000
vt 0.000000 0.000000
vt 1.000000 0.000000
vt 0.000000 0.000000
vt 1.000000 0.000000
vt 1.000000 1.000000
vt 0.000000 1.000000
vt 0.000000 0.000000
vt 1.000000 0.000000
vt 0.000000 1.000000
vt 0.000000 0.000000
vt 1.000000 0.000000
vt 1.000000 1.000000
vt 0.000000 0.000000
vt 1.000000 0.000000
vt 1.000000 1.000000
vt 0.000000 1.000000
vt 0.000000 0.000000
vt 1.000000 0.000000
vt 1.000000 1.000000
vt 0.000000 1.000000
vn 0.0000 1.0000 0.0000
vn -1.0000 0.0000 0.0000
vn 0.0000 0.0000 -1.0000
vn 1.0000 0.0000 0.0000
vn 0.0000 -0.0000 1.0000
usemtl Default_OBJ.002
s off
f 16/1/1 2/2/1 17/3/1 18/4/1
f 1/5/1 15/6/1 16/7/1 20/8/1
f 19/9/1 20/10/1 16/11/1 18/12/1 3/13/1 4/14/1
usemtl Default_OBJ
f 5/15/2 6/16/2 16/7/2 15/6/2
f 12/17/3 13/18/3 20/8/3 19/19/3
f 12/20/4 19/9/4 4/14/4 11/21/4
f 6/22/3 7/23/3 2/24/3 16/11/3
f 7/25/2 8/26/2 17/3/2 2/2/2
f 8/27/5 9/28/5 18/29/5 17/30/5
f 18/12/2 9/31/2 10/32/2 3/13/2
f 3/33/5 10/34/5 11/35/5 4/36/5
f 13/37/4 14/38/4 1/39/4 20/40/4
f 14/41/3 5/42/3 15/43/3 1/44/3
