# Blender v2.82 (sub 7) OBJ File: ''
# www.blender.org
mtllib Bulding #3 Hitbox.mtl
o Base
v 4.000000 -0.000000 3.000000
v 6.000000 -0.000000 3.000000
v 6.000000 -0.000000 2.000000
v 8.000000 -0.000000 2.000000
v 8.000000 0.000000 0.000000
v 6.000000 0.000000 0.000000
v 6.000000 0.000000 -2.000000
v 5.000000 0.000000 -2.000000
v 5.000000 0.000000 -1.000000
v 4.000000 0.000000 -1.000000
v 4.000000 4.000000 3.000001
v 6.000000 4.000000 3.000001
v 6.000000 4.000000 2.000001
v 8.000000 4.000000 2.000001
v 8.000000 4.000000 0.000001
v 6.000000 4.000000 0.000001
v 6.000000 4.000000 -1.999999
v 5.000000 4.000000 -1.999999
v 5.000000 4.000000 -0.999999
v 4.000000 4.000000 -0.999999
vt 1.000000 0.000000
vt 1.000000 1.000000
vt 0.000000 1.000000
vt 0.000000 0.000000
vt 1.000000 0.000000
vt 0.000000 0.000000
vt 1.000000 1.000000
vt 0.000000 1.000000
vt 0.000000 0.000000
vt 1.000000 0.000000
vt 1.000000 1.000000
vt 0.000000 1.000000
vt 0.000000 0.000000
vt 1.000000 0.000000
vt 1.000000 1.000000
vt 0.000000 1.000000
vt 0.000000 0.000000
vt 1.000000 0.000000
vt 1.000000 1.000000
vt 0.000000 1.000000
vt 0.000000 0.000000
vt 1.000000 0.000000
vt 1.000000 1.000000
vt 0.000000 1.000000
vt 0.000000 1.000000
vt 0.000000 0.000000
vt 1.000000 0.000000
vt 1.000000 1.000000
vt 0.000000 0.000000
vt 1.000000 1.000000
vt 0.000000 1.000000
vt 1.000000 0.000000
vt 1.000000 1.000000
vt 0.000000 1.000000
vt 0.000000 0.000000
vt 1.000000 0.000000
vt 1.000000 1.000000
vt 0.000000 1.000000
vn 1.0000 0.0000 0.0000
vn 0.0000 0.0000 -1.0000
vn -1.0000 0.0000 0.0000
vn 0.0000 -0.0000 1.0000
vn -0.0000 1.0000 0.0000
usemtl Default_OBJ.002
s off
f 5/1/1 15/2/1 14/3/1 4/4/1
f 7/5/2 8/6/2 18/7/2 17/8/2
f 10/9/3 1/10/3 11/11/3 20/12/3
f 1/13/4 2/14/4 12/15/4 11/16/4
f 2/17/1 3/18/1 13/19/1 12/20/1
f 3/21/4 4/22/4 14/23/4 13/24/4
f 15/25/2 5/26/2 6/27/2 16/28/2
f 6/29/1 7/5/1 17/30/1 16/31/1
f 8/6/3 9/32/3 19/33/3 18/34/3
f 9/35/2 10/36/2 20/37/2 19/38/2
f 11/16/5 12/20/5 13/24/5 14/3/5 15/25/5 16/31/5 17/8/5 18/34/5 19/38/5 20/12/5
