# Blender v2.82 (sub 7) OBJ File: ''
# www.blender.org
mtllib Bulding #2 Hitbox.mtl
o BuildingBase
v 4.000000 -0.000000 1.000000
v 5.000000 -0.000000 1.000000
v 5.000000 -0.000000 2.000000
v 6.000000 -0.000000 2.000000
v 6.000000 -0.000000 3.000000
v 8.000000 -0.000000 3.000000
v 8.000000 -0.000000 1.000000
v 9.000000 -0.000000 1.000000
v 9.000000 0.000000 0.000000
v 7.000000 0.000000 0.000000
v 7.000000 0.000000 -1.000000
v 4.000000 0.000000 -1.000000
v 4.000000 3.000000 1.000000
v 5.000000 3.000000 1.000000
v 5.000000 3.000000 2.000000
v 6.000000 3.000000 2.000000
v 6.000000 3.000000 3.000000
v 8.000000 3.000000 3.000000
v 8.000000 3.000000 1.000000
v 9.000000 3.000000 1.000000
v 9.000000 3.000000 0.000000
v 7.000000 3.000000 0.000000
v 7.000000 3.000000 -1.000000
v 4.000000 3.000000 -1.000000
vt 0.000000 1.000000
vt 0.000000 0.000000
vt 1.000000 0.000000
vt 1.000000 1.000000
vt 0.000000 1.000000
vt 0.000000 0.000000
vt 1.000000 0.000000
vt 1.000000 1.000000
vt 0.000000 0.000000
vt 1.000000 0.000000
vt 1.000000 1.000000
vt 0.000000 1.000000
vt 0.000000 0.000000
vt 1.000000 0.000000
vt 1.000000 1.000000
vt 0.000000 1.000000
vt 0.000000 0.000000
vt 1.000000 0.000000
vt 1.000000 1.000000
vt 0.000000 1.000000
vt 0.000000 0.000000
vt 1.000000 0.000000
vt 1.000000 1.000000
vt 0.000000 1.000000
vt 0.000000 0.000000
vt 1.000000 0.000000
vt 1.000000 1.000000
vt 0.000000 1.000000
vt 0.000000 0.000000
vt 1.000000 0.000000
vt 1.000000 1.000000
vt 0.000000 1.000000
vt 0.000000 0.000000
vt 1.000000 0.000000
vt 1.000000 1.000000
vt 0.000000 1.000000
vt 1.000000 1.000000
vt 0.000000 1.000000
vt 0.000000 0.000000
vt 1.000000 0.000000
vt 1.000000 1.000000
vt 0.000000 1.000000
vt 0.000000 0.000000
vt 0.000000 0.000000
vt 1.000000 0.000000
vt 1.000000 1.000000
vt 0.000000 1.000000
vn 0.0000 -0.0000 1.0000
vn 1.0000 0.0000 0.0000
vn -1.0000 0.0000 0.0000
vn 0.0000 0.0000 -1.0000
vn 0.0000 1.0000 0.0000
usemtl Default_OBJ
s off
f 13/1/1 1/2/1 2/3/1 14/4/1
f 19/5/1 7/6/1 8/7/1 20/8/1
f 6/9/2 7/10/2 19/11/2 18/12/2
f 2/13/3 3/14/3 15/15/3 14/16/3
f 3/17/1 4/18/1 16/19/1 15/20/1
f 4/21/3 5/22/3 17/23/3 16/24/3
f 11/25/4 12/26/4 24/27/4 23/28/4
f 8/29/2 9/30/2 21/31/2 20/32/2
f 10/33/2 11/34/2 23/35/2 22/36/2
f 6/9/1 18/37/1 17/38/1 5/39/1
f 1/40/3 13/41/3 24/42/3 12/43/3
f 9/44/4 10/45/4 22/46/4 21/47/4
f 14/4/5 15/20/5 16/24/5 17/38/5 18/12/5 19/5/5 20/32/5 21/47/5 22/36/5 23/28/5 24/42/5 13/1/5
